<?xml version="1.0" encoding="UTF-8" standalone="no"?>
<!DOCTYPE svg PUBLIC "-//W3C//DTD SVG 1.1//EN"
 "http://www.w3.org/Graphics/SVG/1.1/DTD/svg11.dtd">
<!-- Generated by graphviz version 2.28.0 (20120819.1634)
 -->
<!-- Title: g Pages: 1 -->
<svg width="134pt" height="260pt"
 viewBox="0.00 0.00 134.00 260.00" xmlns="http://www.w3.org/2000/svg" xmlns:xlink="http://www.w3.org/1999/xlink">
<g id="graph1" class="graph" transform="scale(1 1) rotate(0) translate(4 256)">
<title>g</title>
<polygon fill="white" stroke="white" points="-4,5 -4,-256 131,-256 131,5 -4,5"/>
<!-- a -->
<g id="node1" class="node"><title>a</title>
<ellipse fill="none" stroke="black" cx="63" cy="-234" rx="27" ry="18"/>
<text text-anchor="middle" x="63" y="-230.3" font-family="Times,serif" font-size="14.00">a</text>
</g>
<!-- b -->
<g id="node3" class="node"><title>b</title>
<ellipse fill="none" stroke="black" cx="27" cy="-162" rx="27" ry="18"/>
<text text-anchor="middle" x="27" y="-158.3" font-family="Times,serif" font-size="14.00">b</text>
</g>
<!-- a&#45;&gt;b -->
<g id="edge2" class="edge"><title>a&#45;&gt;b</title>
<path fill="none" stroke="black" d="M54.6504,-216.765C50.2885,-208.283 44.8531,-197.714 39.9587,-188.197"/>
<polygon fill="black" stroke="black" points="42.9904,-186.439 35.3043,-179.147 36.7654,-189.641 42.9904,-186.439"/>
</g>
<!-- c -->
<g id="node5" class="node"><title>c</title>
<ellipse fill="none" stroke="black" cx="99" cy="-162" rx="27" ry="18"/>
<text text-anchor="middle" x="99" y="-158.3" font-family="Times,serif" font-size="14.00">c</text>
</g>
<!-- a&#45;&gt;c -->
<g id="edge4" class="edge"><title>a&#45;&gt;c</title>
<path fill="none" stroke="black" d="M71.3496,-216.765C75.7115,-208.283 81.1469,-197.714 86.0413,-188.197"/>
<polygon fill="black" stroke="black" points="89.2346,-189.641 90.6957,-179.147 83.0096,-186.439 89.2346,-189.641"/>
</g>
<!-- d -->
<g id="node7" class="node"><title>d</title>
<ellipse fill="none" stroke="black" cx="63" cy="-90" rx="27" ry="18"/>
<text text-anchor="middle" x="63" y="-86.3" font-family="Times,serif" font-size="14.00">d</text>
</g>
<!-- b&#45;&gt;d -->
<g id="edge6" class="edge"><title>b&#45;&gt;d</title>
<path fill="none" stroke="black" d="M35.3496,-144.765C39.7115,-136.283 45.1469,-125.714 50.0413,-116.197"/>
<polygon fill="black" stroke="black" points="53.2346,-117.641 54.6957,-107.147 47.0096,-114.439 53.2346,-117.641"/>
</g>
<!-- c&#45;&gt;d -->
<g id="edge8" class="edge"><title>c&#45;&gt;d</title>
<path fill="none" stroke="black" d="M90.6504,-144.765C86.2885,-136.283 80.8531,-125.714 75.9587,-116.197"/>
<polygon fill="black" stroke="black" points="78.9904,-114.439 71.3043,-107.147 72.7654,-117.641 78.9904,-114.439"/>
</g>
<!-- e -->
<g id="node10" class="node"><title>e</title>
<ellipse fill="none" stroke="black" cx="63" cy="-18" rx="27" ry="18"/>
<text text-anchor="middle" x="63" y="-14.3" font-family="Times,serif" font-size="14.00">e</text>
</g>
<!-- d&#45;&gt;e -->
<g id="edge10" class="edge"><title>d&#45;&gt;e</title>
<path fill="none" stroke="black" d="M63,-71.6966C63,-63.9827 63,-54.7125 63,-46.1124"/>
<polygon fill="black" stroke="black" points="66.5001,-46.1043 63,-36.1043 59.5001,-46.1044 66.5001,-46.1043"/>
</g>
</g>
</svg>
