P2
# Created by IrfanView
117 43
255
206 206 206 206 202 207 212 211 210 211 206 209 209 208 210 210 206 
206 206 204 207 209 206 211 211 207 205 212 206 211 211 210 207 
205 205 209 209 208 207 207 210 212 211 210 214 209 212 210 211 
209 209 208 207 207 212 212 209 206 209 209 210 212 209 208 207 
206 207 212 210 208 214 210 209 212 210 205 204 207 206 213 210 
203 211 210 207 205 210 212 209 204 211 214 217 211 210 218 216 
213 207 210 213 212 213 213 211 214 210 209 210 212 210 215 215 
210 212 211 212 203 208 207 204 203 203 209 210 207 211 206 206 202 203 195 185 182 
178 186 192 206 205 208 212 209 210 212 212 210 207 208 208 207 
203 204 204 206 210 210 207 212 209 209 210 212 214 209 213 211 
213 210 209 207 209 212 210 209 207 209 212 210 210 213 214 213 
214 208 210 206 213 215 213 213 216 212 207 203 203 207 207 208 
206 213 209 209 207 212 209 209 210 208 209 213 213 212 215 214 
215 209 211 212 213 209 207 213 212 213 210 210 208 212 214 210 
214 214 216 218 208 209 210 210 210 207 205 209 209 211 200 192 161 137 110 98 96 
92 95 102 164 201 207 214 208 213 208 210 209 209 209 203 203 
199 196 203 207 208 212 210 208 208 210 206 210 214 209 212 211 
211 209 204 204 209 212 209 212 207 206 209 210 211 212 209 208 
206 208 206 210 212 210 209 210 212 211 203 202 207 206 208 206 
206 205 206 209 213 212 213 212 212 212 207 205 214 213 214 213 
217 214 213 214 213 211 212 213 213 212 212 213 214 212 213 213 
209 211 213 217 205 209 209 207 208 206 209 211 208 184 129 107 106 146 125 140 129 
98 96 89 95 136 196 209 210 212 212 210 214 210 208 210 203 
207 203 205 208 210 212 209 209 209 211 212 212 210 213 208 214 
213 206 199 196 206 208 204 204 209 204 205 207 207 206 209 206 
209 207 209 207 207 207 213 214 213 208 207 205 207 207 211 206 
206 203 210 208 212 210 210 213 208 212 208 212 212 210 213 212 
213 214 212 214 211 214 217 209 211 212 216 214 210 206 211 214 
214 208 215 213 206 205 206 212 212 212 206 205 170 108 127 162 186 206 200 199 200 
184 159 106 89 88 118 194 207 209 210 210 210 212 210 209 204 
206 206 205 205 208 209 206 207 210 207 213 209 209 208 211 213 
215 207 200 201 205 207 202 208 208 205 203 195 193 207 210 209 
208 203 202 207 207 203 210 209 209 207 206 206 206 207 209 209 
207 209 208 210 212 214 210 209 214 212 213 213 207 210 211 211 
212 213 212 209 209 212 213 212 214 212 213 210 214 207 214 215 
214 209 210 213 205 213 210 208 210 209 203 171 105 145 198 208 210 210 209 207 211 
207 200 179 140 89 87 144 199 205 206 208 203 207 211 204 211 
208 208 207 206 203 206 206 211 211 207 210 207 210 214 211 211 
211 207 200 205 210 209 207 203 195 170 127 101 101 172 206 207 
205 204 206 206 204 203 208 212 210 214 205 207 208 208 210 210 
214 207 207 212 210 208 209 212 213 214 209 211 208 207 211 212 
212 210 209 214 209 214 212 215 206 209 214 214 212 210 213 210 
213 211 214 217 209 209 210 209 209 210 184 115 154 200 209 208 212 209 207 210 208 
209 207 199 190 110 91 92 154 203 207 207 202 205 205 202 202 
203 209 209 208 209 210 212 213 209 209 213 213 207 210 210 212 
212 210 203 202 206 210 199 163 111 93 92 92 92 119 202 209 
202 203 205 203 205 205 204 208 209 206 205 207 207 205 208 210 
212 215 210 212 206 209 206 213 209 212 210 213 206 215 212 213 
210 210 210 206 210 207 213 215 213 213 214 214 212 214 211 214 
213 213 210 215 206 205 210 210 210 197 140 155 204 210 210 208 205 200 200 206 209 
205 207 204 201 161 95 85 105 190 203 206 209 204 200 200 204 
206 207 205 209 204 203 206 210 213 207 207 212 214 213 211 210 
211 205 198 203 202 200 160 96 122 149 147 118 109 99 180 207 
202 203 205 207 209 205 202 205 205 203 204 205 210 212 206 212 
217 214 214 212 207 209 210 210 213 212 212 215 210 206 209 212 
208 213 213 213 211 206 210 217 210 211 211 211 214 215 211 210 
214 214 214 215 204 210 209 207 201 173 108 193 208 212 209 209 205 143 130 197 205 
210 204 203 202 198 152 102 95 181 202 204 206 205 201 200 202 
210 209 209 206 205 208 206 203 205 207 211 209 210 208 207 209 
206 203 199 199 206 188 142 173 196 203 203 196 177 108 197 207 
207 202 204 208 206 204 204 204 209 206 207 209 211 212 211 210 
214 210 210 209 207 212 208 209 209 212 209 209 213 211 210 213 
213 210 207 214 212 212 210 210 211 213 213 214 217 212 214 212 
211 214 213 213 203 209 207 207 190 109 161 208 207 212 209 209 197 94 84 161 201 
206 207 202 202 205 191 118 123 200 206 207 206 207 203 204 206 
207 211 207 208 206 208 208 205 209 212 210 209 211 213 214 210 
206 200 201 204 205 202 205 207 210 204 208 209 204 189 207 211 
208 207 202 207 212 211 208 206 209 207 206 200 206 205 208 206 
207 214 209 209 210 212 213 208 206 212 210 213 207 206 205 211 
209 213 210 208 209 211 208 212 210 208 215 210 212 218 214 217 
212 214 214 212 205 206 207 207 164 102 195 206 207 211 213 211 189 93 89 88 161 
191 196 198 200 199 178 113 176 209 206 206 207 207 202 201 206 
207 208 209 209 209 209 207 206 208 210 209 212 207 208 210 213 
204 202 201 206 202 174 170 207 212 207 205 212 213 212 210 210 
208 203 206 205 210 206 201 207 207 211 208 203 208 205 204 209 
210 207 208 212 212 209 213 210 209 211 207 208 206 204 205 208 
212 212 210 209 208 211 209 212 214 212 211 212 213 214 214 213 
213 209 214 215 201 209 206 202 126 133 202 210 209 204 208 205 199 119 84 85 88 
115 136 150 153 148 108 158 200 206 208 202 203 207 206 202 204 
204 206 207 207 202 206 208 209 207 207 209 207 208 208 210 210 
201 204 203 199 186 101 145 207 211 206 203 206 206 209 208 206 
206 206 204 209 215 211 207 207 210 208 207 205 206 207 209 210 
210 212 210 209 210 209 211 209 210 212 211 206 205 204 204 207 
207 209 206 203 199 203 209 210 210 210 209 212 209 209 213 212 
210 210 212 210 203 202 205 186 92 162 207 212 207 207 204 207 202 187 110 85 85 
86 82 81 87 94 166 199 202 203 207 207 204 205 203 197 202 
197 202 203 202 204 206 209 206 209 209 207 207 203 207 207 206 
197 203 202 203 156 86 135 206 209 207 203 197 189 185 193 193 
200 207 209 208 211 212 208 207 203 203 211 213 210 209 207 204 
212 206 208 206 210 211 214 212 209 212 209 206 202 201 210 209 
207 202 180 129 102 127 184 205 209 210 213 212 209 206 211 212 
212 210 212 210 203 200 199 181 89 165 203 210 206 205 205 207 210 206 182 136 95 
90 91 92 111 170 199 201 207 206 204 208 206 202 205 200 194 
182 165 161 178 188 196 203 202 206 207 204 204 205 207 209 205 
200 200 202 203 152 86 131 200 208 205 186 126 90 90 105 102 
138 167 202 214 211 213 213 206 203 201 208 212 212 207 208 207 
209 205 203 193 192 207 209 212 210 206 211 207 202 205 208 206 
203 159 100 100 89 92 146 206 206 212 207 210 212 209 214 214 
213 214 214 213 201 206 197 165 86 151 202 207 205 205 204 203 204 203 206 198 184 
171 173 173 192 207 203 202 203 201 203 206 205 206 204 195 150 
86 82 84 92 102 116 164 196 206 206 205 206 206 205 200 193 
175 160 146 165 156 87 126 203 200 168 108 84 87 89 84 84 
86 89 136 202 213 212 207 191 152 185 212 210 210 208 211 206 
203 203 180 105 147 206 209 212 207 203 199 205 203 203 206 202 
168 96 153 185 127 135 186 207 210 211 209 206 212 213 209 209 
212 215 208 211 200 201 194 158 86 135 203 205 207 205 203 206 204 205 202 206 199 
196 202 205 207 207 206 206 204 201 205 204 203 206 203 175 95 
84 84 85 83 83 83 84 150 205 206 205 204 203 194 153 106 
91 90 92 131 163 87 111 196 170 102 148 155 133 128 90 87 
88 84 91 169 204 205 196 122 88 131 205 208 212 208 210 206 
202 200 147 84 120 201 207 202 199 202 202 205 201 213 212 199 
134 105 198 206 201 198 202 199 205 209 211 212 212 209 209 211 
211 210 209 207 200 202 197 162 82 109 199 208 203 206 204 205 207 203 203 205 198 
199 203 206 205 206 202 206 202 203 200 190 173 174 200 179 166 
162 154 128 99 84 83 82 89 169 202 202 199 188 128 92 122 
153 156 165 193 172 85 104 180 111 150 205 205 203 199 176 120 
86 83 92 155 205 200 160 93 93 109 194 209 210 210 212 210 
204 197 137 85 110 196 203 200 201 197 203 209 207 211 210 197 
115 103 195 209 208 203 169 110 177 212 207 209 212 212 210 207 
207 212 208 211 204 209 203 160 84 99 186 205 206 204 203 203 208 203 204 203 200 
200 204 205 205 202 206 203 203 197 173 124 96 162 202 197 200 
196 197 196 186 154 86 85 82 111 201 201 184 124 112 161 194 
200 200 205 207 185 91 106 142 116 197 210 210 210 205 203 195 
158 90 89 163 205 180 109 105 91 97 182 209 210 212 207 206 
206 200 143 82 97 192 200 201 206 202 205 207 210 212 212 197 
104 109 200 209 209 189 106 95 180 209 212 212 213 211 208 210 
208 209 207 203 205 203 204 169 80 85 162 200 206 202 209 208 206 205 206 206 201 
206 203 206 209 206 204 204 199 170 97 88 127 196 207 206 204 
205 203 203 205 199 142 85 81 106 195 194 133 126 184 204 207 
209 208 210 206 192 91 89 110 156 206 206 208 209 210 209 207 
193 118 89 172 194 123 151 161 90 89 171 207 212 210 213 208 
203 172 117 82 100 192 205 210 213 211 209 208 209 206 206 191 
94 92 165 197 184 133 91 96 186 209 209 210 210 215 209 208 
203 206 203 207 207 202 205 187 85 80 113 197 208 210 208 205 209 207 205 205 209 
207 197 206 208 210 206 201 180 96 94 137 186 206 207 207 208 
204 207 203 201 205 191 122 84 124 199 161 102 188 203 204 210 
208 209 206 187 160 91 90 167 200 206 210 211 209 206 212 207 
196 139 101 186 144 131 194 196 120 91 156 209 210 210 206 204 
182 136 150 85 98 186 206 211 210 208 206 209 213 211 210 195 
103 89 96 123 96 95 87 95 188 211 209 210 209 209 211 211 
207 203 194 205 209 205 204 200 124 83 89 177 203 204 205 210 206 206 207 205 207 
208 205 201 203 205 205 192 118 91 161 195 199 200 209 211 208 
206 206 210 204 201 200 166 84 144 190 104 122 197 206 205 209 
212 211 197 137 129 101 95 190 207 215 208 211 210 209 209 208 
196 114 146 170 123 190 206 201 143 90 167 208 212 213 209 202 
145 170 173 85 93 177 207 207 209 208 205 198 195 205 203 197 
105 84 88 89 123 166 109 94 188 209 207 207 205 206 204 203 
198 168 180 209 205 207 206 202 143 84 82 117 192 206 205 206 209 211 207 209 203 
202 207 208 207 200 197 150 88 123 196 202 206 205 204 207 212 
210 207 207 206 203 201 166 113 192 178 89 98 194 205 207 207 
210 203 184 95 150 90 98 191 212 213 212 206 206 210 210 203 
174 101 179 151 188 205 210 205 149 94 166 207 211 206 211 184 
128 194 190 89 85 160 206 212 205 205 178 146 188 163 155 182 
154 89 90 141 196 196 124 90 184 211 215 210 209 204 202 196 
161 178 207 213 206 207 207 208 174 89 82 87 169 203 205 209 206 210 208 205 205 
202 203 206 205 199 158 92 90 133 197 203 207 207 207 207 209 
208 182 197 205 210 191 118 166 202 163 84 94 188 204 209 207 
209 201 156 117 179 101 87 166 205 213 208 204 205 206 205 185 
118 164 203 206 211 210 208 203 161 92 164 206 207 207 195 131 
167 207 193 95 87 129 199 206 201 172 158 200 188 98 86 108 
141 100 100 187 212 203 143 87 162 209 207 212 206 202 195 149 
184 209 211 210 207 206 208 206 197 112 84 83 102 191 202 204 207 209 210 204 207 
204 203 204 187 122 104 94 84 99 178 202 202 204 205 210 208 
199 129 190 203 199 143 152 201 205 170 82 84 149 195 204 206 
207 192 116 179 197 137 91 162 205 209 210 211 197 202 188 128 
175 207 213 210 211 213 214 209 146 92 167 208 206 199 147 143 
196 209 198 111 84 87 122 145 133 133 202 209 169 88 93 87 
88 104 166 203 204 206 152 87 135 204 207 206 199 180 126 171 
207 207 210 210 211 212 210 212 206 178 89 82 83 115 184 199 206 202 206 207 207 
205 197 162 102 122 180 138 87 84 98 156 191 205 207 207 206 
172 130 202 193 148 159 200 207 206 179 89 82 88 112 170 192 
186 140 152 209 205 172 89 172 206 209 211 200 138 127 122 172 
206 207 213 211 214 211 213 207 165 84 149 202 192 138 136 202 
211 218 211 157 85 86 90 94 154 200 213 210 184 102 89 93 
108 177 203 209 212 206 170 83 96 193 197 193 167 127 170 201 
209 210 207 213 210 211 208 210 206 201 138 84 83 84 106 139 184 194 197 190 184 
167 123 97 146 197 199 169 87 86 87 85 109 170 192 189 167 
110 182 203 174 180 204 207 206 209 196 128 80 88 88 92 103 
104 135 200 208 206 168 88 143 205 208 207 204 170 132 184 208 
213 207 210 212 215 210 211 204 137 92 109 156 118 135 198 212 
215 213 212 195 130 111 116 156 200 206 213 210 205 188 166 173 
192 205 211 210 212 207 195 105 87 109 140 122 124 194 212 209 
213 216 212 213 207 211 206 210 212 211 186 100 85 76 83 83 91 103 111 98 92 
89 107 181 199 205 202 197 136 85 83 83 86 89 105 101 117 
180 204 207 201 206 209 206 210 208 204 160 85 89 87 85 92 
146 198 209 210 207 167 84 120 201 213 210 203 205 202 207 211 
215 212 213 215 215 216 212 203 136 89 84 102 156 203 214 212 
214 214 214 210 207 199 204 209 213 212 213 209 213 209 209 209 
210 212 212 210 211 211 199 104 85 89 94 131 197 212 213 214 
211 213 213 217 207 206 212 212 209 210 209 167 95 90 81 84 84 83 83 90 102 
149 190 205 207 207 212 206 193 162 94 82 87 84 87 102 173 
207 209 211 209 207 212 208 209 208 207 202 177 147 130 118 157 
200 207 212 207 206 195 100 117 203 214 212 210 213 209 213 215 
212 210 212 213 213 214 217 207 153 90 116 175 209 215 217 214 
214 217 213 215 215 219 217 211 217 216 213 211 212 213 214 213 
211 214 213 211 215 213 204 151 103 126 170 201 211 213 213 211 
205 208 211 216 210 211 215 212 210 209 210 207 186 132 92 89 89 94 115 148 188 
200 207 209 205 207 208 206 207 200 167 116 109 104 142 174 202 
206 205 206 207 208 208 206 206 209 203 206 206 205 201 199 209 
213 212 209 210 207 199 108 108 200 212 209 212 209 214 215 212 
214 214 214 212 212 214 215 212 192 159 196 210 214 215 217 217 
214 215 216 213 214 214 213 214 213 212 212 213 214 207 214 217 
214 213 213 213 215 213 210 206 197 203 210 212 215 213 213 213 
214 214 213 210 212 210 214 212 212 213 212 209 205 196 189 171 169 190 200 205 209 
205 212 212 209 206 202 208 209 207 203 199 194 190 203 204 207 
206 209 210 210 209 211 207 209 209 205 204 211 212 211 212 210 
214 210 210 210 207 199 107 98 189 210 213 212 215 215 212 209 
210 212 214 212 212 215 217 215 210 212 215 213 214 209 212 215 
215 213 213 216 214 209 212 212 215 210 209 214 217 213 214 213 
213 212 213 214 213 214 213 210 211 211 213 214 216 210 212 218 
214 216 211 209 215 210 213 212 215 211 209 210 211 209 208 204 204 211 212 210 211 
207 209 210 206 212 210 209 212 213 207 209 213 208 210 210 210 
209 209 209 209 211 215 212 209 210 207 210 211 211 209 211 213 
213 211 211 209 210 206 132 95 179 211 213 209 212 213 210 211 
212 213 210 213 212 215 212 215 214 213 214 213 217 210 213 213 
216 217 218 215 216 214 209 214 217 214 212 216 217 214 215 214 
216 218 213 213 214 213 215 216 214 215 213 213 213 215 210 214 
211 215 213 210 211 212 210 211 214 210 209 211 215 212 208 211 212 209 214 213 212 
211 210 205 212 209 210 213 212 207 209 206 205 205 210 212 212 
212 212 211 207 209 215 210 208 214 208 212 209 213 210 213 214 
213 214 214 209 210 200 130 88 173 212 213 213 211 210 217 211 
213 213 211 214 211 212 213 215 218 218 213 210 215 216 215 218 
215 215 214 214 218 215 214 214 214 214 219 219 215 217 214 216 
218 217 214 218 214 214 215 215 214 213 210 213 213 212 214 211 
217 217 205 206 213 214 211 212 212 215 212 212 212 214 213 211 212 211 213 212 212 
211 209 214 210 210 215 207 210 210 208 210 212 212 213 214 214 
213 213 209 211 209 209 209 209 205 211 212 213 214 213 213 215 
214 212 214 211 213 207 151 92 173 208 214 214 214 213 216 218 
215 212 217 213 214 213 212 211 219 216 214 212 212 216 218 216 
216 215 214 215 214 215 219 219 216 212 215 215 216 214 217 215 
218 217 213 217 210 209 215 215 213 210 210 212 212 214 210 216 
217 217 210 213 213 213 214 213 210 213 211 211 209 214 215 215 211 208 213 214 213 
212 217 214 212 214 214 213 209 208 210 214 213 210 212 212 216 
210 213 214 213 214 214 212 211 210 210 211 207 211 213 214 216 
214 213 212 212 215 208 151 89 166 206 209 214 212 207 215 214 
216 213 215 214 217 217 209 212 215 211 216 212 213 213 215 217 
217 218 214 213 209 215 217 214 215 216 215 213 216 210 216 217 
217 218 215 213 211 212 215 214 214 215 214 216 214 217 215 216 
214 215 211 214 213 213 217 208 208 208 210 207 214 214 209 212 215 209 212 205 210 
215 211 212 210 212 210 209 209 212 213 213 215 212 213 210 215 
212 213 213 216 215 215 212 212 212 210 212 213 212 213 217 215 
214 213 213 212 213 205 129 91 144 209 211 210 212 211 215 213 
215 212 215 215 218 215 208 210 214 212 215 215 214 215 213 213 
217 217 216 215 213 213 218 218 217 213 217 218 217 217 219 218 
217 218 217 212 217 212 211 217 215 220 218 218 211 217 214 217 
216 214 216 217 213 213 214 210 215 212 214 215 209 216 215 213 215 214 212 213 214 
214 213 212 214 216 215 209 212 209 212 213 210 214 212 215 213 
217 214 214 214 213 212 214 210 213 210 212 213 209 215 214 214 
211 212 208 211 213 202 136 109 178 209 213 211 215 214 215 213 
214 215 217 214 215 214 216 211 215 214 214 217 215 213 215 215 
214 217 217 216 212 213 217 219 219 218 214 214 218 217 220 219 
218 217 217 214 209 212 214 214 220 220 214 218 214 215 214 213 
214 213 214 214 214 214 213 213 212 212 214 217 213 213 210 213 213 212 211 214 216 
212 215 213 214 209 213 212 211 209 212 213 210 214 214 215 216 
213 215 213 214 213 213 215 215 214 214 214 212 213 213 211 215 
211 209 211 210 206 190 102 117 127 205 214 212 211 212 217 214 
212 214 215 215 214 213 213 214 213 214 214 212 211 215 213 215 
212 213 213 218 214 215 217 219 217 215 216 214 217 221 217 214 
217 218 218 217 215 215 214 217 215 215 218 216 215 212 212 217 
213 214 211 215 214 212 212 211 210 212 212 212 210 214 213 212 212 214 215 210 211 
208 213 214 214 211 211 213 213 212 213 213 209 215 215 215 212 
215 214 215 214 217 216 210 214 215 211 214 210 214 213 215 215 
213 216 205 184 141 102 96 103 163 213 212 212 214 213 214 215 
210 216 215 214 214 212 216 213 213 213 214 213 217 215 219 213 
216 209 209 214 212 218 215 219 215 217 213 214 216 217 219 215 
220 217 218 215 217 214 215 211 215 217 218 218 218 215 213 214 
213 215 215 213 210 212 214 214 210 210 210 214 207 213 214 207 212 214 213 208 209 
210 212 216 214 218 216 214 215 215 219 216 212 212 214 215 215 
213 214 213 214 216 213 211 212 213 213 214 213 214 210 213 210 
209 201 165 102 89 108 158 190 212 214 212 212 216 217 217 215 
215 214 218 220 217 214 213 215 215 215 214 210 217 215 218 215 
214 216 214 215 212 217 218 218 215 218 217 218 216 216 212 217 
217 217 215 219 217 212 210 217 217 217 214 218 214 216 211 211 
214 210 213 215 212 213 210 214 212 212 213 210 209 213 213 211 211 213 210 212 211 
210 213 214 213 216 214 215 214 211 214 215 215 212 212 217 213 
214 212 213 214 211 212 213 214 214 213 215 214 213 213 214 214 
211 171 112 138 167 193 213 209 210 216 217 213 218 215 216 219 
219 213 215 216 217 218 218 216 215 213 213 213 212 218 214 213 
214 213 215 213 217 217 216 213 215 214 217 217 214 217 216 218 
214 217 216 215 213 214 212 220 215 214 215 218 212 214 213 212 
212 214 209 214 214 214 215 213 213 215 215 213 209 211 214 212 214 213 218 209 212 
214 214 215 215 210 213 212 212 211 212 213 214 215 214 214 215 
213 210 212 216 213 212 215 215 214 213 213 216 212 216 208 217 
212 181 184 207 211 212 215 211 211 213 217 212 215 214 213 217 
215 210 213 218 217 217 215 214 220 213 212 215 223 218 219 215 
212 214 215 212 214 215 213 212 213 213 214 214 212 217 219 215 
218 214 215 213 212 211 213 214 214 214 218 214 216 215 212 211 
212 214 212 214 215 213 212 212 212 212 208 210 212 214 214 214 212 212 214 213 212 
214 212 214 215 214 213 214 211 211 215 215 213 214 218 215 215 
212 214 215 213 215 211 214 215 214 219 213 215 216 215 215 215 
213 213 214 217 213 210 212 214 215 213 215 213 213 212 213 214 
217 217 216 214 215 218 216 216 217 218 216 217 216 215 218 214 
217 216 216 217 219 215 211 216 214 215 215 216 214 216 219 217 
214 218 216 218 215 218 214 217 215 211 215 217 214 216 212 218 
217 216 217 213 211 213 208 214 215 213 212 210 209 214 214 217 215 214 211 213 217 
215 210 212 214 216 212 217 212 210 215 212 214 210 218 213 217 
211 214 215 212 216 215 214 217 212 216 214 214 217 216 218 212 
211 211 216 218 214 214 218 214 213 213 214 212 213 217 216 213 
213 213 211 214 209 211 218 215 215 209 217 217 216 217 212 215 
217 216 218 217 217 218 214 218 215 215 216 219 219 219 215 217 
217 219 215 212 217 217 216 215 214 214 218 219 214 215 213 213 
214 215 214 215 